<svg xmlns="http://www.w3.org/2000/svg" viewBox="0 0 330 250"><path d="M118,173.39h84.27v17.67H118Z" style="fill:#005e95"/><path d="M220.58,86.4v16.31H96.89V86.4Zm-123.69,68H220.58V138.05H96.89Z" style="fill:#ccc"/><path d="M.36,13.08C2.8,11.72,23,.83,40.49,1.85,54.73,2.69,60.18.83,61.85,0h1l.33.37C63,.51,59,4,40.43,2.84,22.19,1.75.84,14,.62,14.08l-.25-.43Zm0,14.21v.88A8.44,8.44,0,0,0,1,27.23C10.83,8.66,36.53,10.81,44.59,12.11,59,14.44,79.94,1,80.82.42L80.55,0h-.94C75.89,2.28,57.39,13.16,44.75,11.13c-32.59-5.28-42.13,10-44.38,15m273.69,213c-2.69-.35-7.41,8.43-8.33,10.2l.89.46c2.15-4.13,5.81-9.84,7.31-9.67.34,0,.53.67.61,1,1.23,5.51-2.41,7.88-2.56,8l.53.85s4.4-2.82,3-9C275.27,239.81,274.78,239.2,274.06,239.11ZM.37,67.15v1.1c.66-.31,66.24-31.2,83.78-45.2S127.11.56,127.37.47L127.21,0H125.7c-5.53,2-26.91,10.09-42.17,22.27C66.07,36.2,1,66.84.37,67.15Zm127.77-3.06H102.3v9.5h25.84ZM.37,6.82l.22.45C.72,7.21,13.66,1,16.65.49L16.57,0H14.75C10.47,1.47,1.89,5.54.37,6.27ZM.05,94.24.7,95c.87-.75,88.06-75,112.21-79.13C137.38,11.68,146.48.78,146.85.31L146.46,0h-.67c-1.7,1.83-11.28,11.16-33,14.88C88.33,19.05,3.64,91.17.05,94.24ZM.37,42.75v.67c0-.06,5.74-6,18-7.59,10.81-1.4,68.48-15.12,89-35.48L107.07,0h-.72C85.67,20,29,33.45,18.27,34.84,7.1,36.29,1.66,40.83.37,42.05Zm0-5v.78c.17-.21,17.5-21.48,28.1-21.58a6.21,6.21,0,0,1,5,2.27C42.9,30.46,92,1.66,94.05.43L93.8,0h-1C89.91,1.67,78.86,7.94,67.09,13.14,49.22,21,37.85,22.91,34.21,18.58A7.09,7.09,0,0,0,28.55,16h-.09C18.18,16.06,3.05,33.74.37,37ZM277.54,233.68a5.84,5.84,0,0,0-5.68-1.39c-6.51,2.1-10.43,16.51-10.59,17.12l1,.25c0-.14,3.93-14.49,9.93-16.42a4.84,4.84,0,0,1,4.74,1.21c8.83,7.22,4.11,14.5,3.9,14.81l.83.55C281.7,249.73,287.1,241.49,277.54,233.68ZM102.3,81.73H227.4V99.36H102.3ZM103.66,98H226V83.08H103.66Zm173,121.72c-2.28-1.66-4.55-2-6.76-1.17-9.43,3.74-14.4,29.78-14.6,30.88l1,.19c.05-.27,5.07-26.6,14-30.15,1.89-.75,3.79-.4,5.8,1.05,15.08,10.94,22.72,19.37,22.07,24.4-.23,1.81-1.55,3.17-4,4.14l.36.93c2.82-1.1,4.39-2.77,4.67-4.95C299.83,239.57,292.27,231.05,276.65,219.73Zm-28.17-121v3.47c2.3-1.72,4.63-3.48,7-5.32,25.2-19.69,40-25.89,49.84-30,6.66-2.78,11.06-4.62,14.93-9.07C329.39,47.29,330,43,330,42.75v3c-1.15,2.45-3.63,6.53-9,12.71-4,4.63-8.5,6.5-15.29,9.34-9.77,4.08-24.52,10.26-49.61,29.86-2.58,2-5.11,3.93-7.61,5.78v5.14c12.55-9.39,31.7-18.94,48.88-27.51C313.64,73,327.71,66,330,61.93v1.66c-3.93,4.3-16.58,10.6-32.19,18.38-17.42,8.69-36.88,18.4-49.33,27.88V114a45.32,45.32,0,0,1,7.17-3.31c4.38-1.13,10-4.08,16.51-7.5C286.72,95.52,306.64,85.08,330,86v1c-23.12-.88-42.9,9.49-57.38,17.09-6.56,3.44-12.22,6.42-16.72,7.57a49.61,49.61,0,0,0-7.42,3.47v3.18a26.76,26.76,0,0,1,7.21-3.12c6.79-1.15,15.66-4.58,25.05-8.22,17.35-6.72,37-14.31,49.26-9.57v1.07c-11.89-4.9-31.54,2.71-48.9,9.43-9.44,3.65-18.36,7.11-25.24,8.28-1.6.27-4.12,1.4-7.38,3.26V124c3.11-2.37,5.57-3.81,7.22-4.09,3.62-.61,9.22-1.88,15.72-3.34,21.51-4.85,51-11.5,58-6.27a4.56,4.56,0,0,1,.6.55v2.35a2.76,2.76,0,0,0-1.2-2.1c-6.63-5-37,1.9-57.16,6.44-6.51,1.47-12.13,2.74-15.78,3.35-1.63.28-4.17,1.81-7.38,4.32v4c3.44-3.47,5.44-5.11,7.26-5.61a39.59,39.59,0,0,1,4.14-.44c15.09-1.75,54.67-6.34,70.12,16.15v1.8c-14.47-23.41-54.8-18.73-70-17a37.56,37.56,0,0,0-4.17.45c-1.29.37-3.78,2.23-7.34,5.9v6.14a33.93,33.93,0,0,1,3.82-2.32c4.41-2.24,8.4-2.76,11.83-1.54,9.14,3.24,18.77,5.81,28.09,8.29,17.92,4.77,33.66,9,37.78,16.26v3c-1.11-8.49-18.22-13-38-18.32-9.34-2.48-19-5.05-28.16-8.31-3.17-1.12-6.89-.62-11.05,1.49a33.73,33.73,0,0,0-4.27,2.64v5.51a27.24,27.24,0,0,1,20-1.77c43.54,11.9,58,23.17,61.48,26.39v1.42c-1.3-1.37-14.25-13.87-61.74-26.85a26.29,26.29,0,0,0-19.78,1.93V177.7c10.6-11.63,22.22-16.38,34.36-13.78,35.15,7.52,44.62,11.17,47.16,12.53v1.14c-.77-.54-6.95-4.05-47.37-12.7-13.5-2.88-24.86,3.73-34.15,14.35v31.53c4.13-8.21,10-16,18.31-21.41,15.74-10.2,37-9.92,63.21.84v1.07c-26.06-10.77-47.14-11.14-62.66-1.08-8.77,5.69-14.77,14.12-18.86,22.86v.73h-.35c-7.88,17.29-8.44,35.49-8.45,35.77l-1,0c0-.27.57-18.36,8.37-35.74H228.36a244.61,244.61,0,0,0-11.7,35.86l-1-.21a248.15,248.15,0,0,1,11.52-35.65H213.63a332,332,0,0,0-5.45,35.8l-1-.08a331.53,331.53,0,0,1,5.43-35.72H193.91c-10.36,19.05-17.53,34.36-18,35.9l-1-.29c.45-1.52,7.55-16.68,17.84-35.61H182.19c-9.82,13.14-19.08,25.71-26.6,36.05l-.81-.59c1.25-1.72,12.05-16.55,26.19-35.46H165.58c-17.25,20.12-30.09,35.63-30.46,36.07l-.77-.63c1.43-1.73,13.64-16.48,29.87-35.44H125.58C101,234,82.76,249.47,82.23,249.92l-.64-.76c2.06-1.75,19.36-16.38,42.37-35.38H85.33C52.64,234.13,28.18,249.51,27.46,250l-.54-.85c2.81-1.76,25.93-16.29,56.49-35.33H80.55V194.83c-43.66,19.85-79.1,35.43-80,35.82l-.4-.91c.88-.39,36.54-16.08,80.38-36V174c-11.92,3.21-23.81,6.38-34.72,9.3C22.17,189.61,1.73,195.06.66,195.66l-.16-.28-.5-.45c.46-.51,9.58-3,45.57-12.6,11-2.93,23-6.13,35-9.36V156.65C37.61,162,1.22,164.84.41,164.9l-.08-1c.82-.07,37.27-2.92,80.22-8.25V136.14a297.59,297.59,0,0,0-40.93,8.53c-20.75,5.7-37.22,12-39,12.68l-.22-.45-.14-.48c2.17-.84,43.48-16.61,80.32-21.29V120.42c-43,13.88-79.32,29.32-80,29.6l-.4-.92c.67-.28,37.18-15.8,80.38-29.73V106.19a53.69,53.69,0,0,1-9.93,3c-9.78,1.23-69.41,33-70,33.35l-.48-.88c2.47-1.32,60.4-32.21,70.37-33.46a55.58,55.58,0,0,0,10-3.08V101.8C39.06,118.72,1.27,138.13.6,138.47l-.46-.88c.67-.35,38.71-19.89,80.41-36.86V89.64C44.34,107.87,1.3,133.31.63,133.71l-.51-.86C2.86,131.23,45,106.31,80.55,88.48V77.3C39.46,97.26,1.28,124.1.66,124.54l-.58-.82c.25-.17,25.46-18,56.64-35.21,7.35-4.07,15.43-8.32,23.83-12.37V65.37C45.05,86.8,1.33,115.61.65,116.06l-.55-.83c2.78-1.84,45.62-30.07,80.45-51.06V60.88C44.81,83.47,1.34,113.12.65,113.59l-.56-.82c2.79-1.91,45.41-31,80.46-53.11V57.28l-1.13.66A692.78,692.78,0,0,0,.69,111.53l-.64-.77A695.63,695.63,0,0,1,78.92,57.08c.53-.32,1.08-.64,1.63-.95V48.71C42.47,72.92,1.34,102.67.67,103.16l-.59-.81c.28-.2,28.26-20.47,59.15-41,7.61-5.06,14.7-9.66,21.32-13.87v-13h21.2C119.55,24,131.92,18.2,138.64,17.13,162.68,13.33,173.15,2,174.81,0h.65l.39.29c-.1.14-10.38,13.61-37,17.83-7,1.1-19.84,7.52-35,16.36H121.2C155.56,17.93,195.41,3.29,233.49,0H241l0,.5c-39.45,1.84-81.38,16.77-117.46,34h2.65c4.36-1,12-2.74,21.41-4.83,33.53-7.45,89.64-19.92,95.27-24.38,5-4,5.4-4.93,5.43-5.08a.29.29,0,0,0,.09.22.19.19,0,0,0,.18.08L248.48,0h.78c.17.46.12,1.37-5.78,6.05S181.41,23.16,147.8,30.63c-6.89,1.53-12.82,2.85-17.22,3.85h49C207.69,29.34,238.71,19.72,255.12,0h.66l.39.32c-15.55,19-44.28,28.73-71.31,34.16h40.83c2.8-1.4,5.65-2.86,8.6-4.45,26-14,44.12-28,44.46-30L279,0h.7a1.71,1.71,0,0,1-.48,1.15C276.38,4.91,257.61,19,232,32.41c-1.31.68-2.66,1.38-4,2.07h20.56v1.21C264.29,22.11,289.54,3,293.45,0h.83l.3.4c-.36.27-29.17,22-46.1,36.6v3.3A549.62,549.62,0,0,0,299.07,0h.74l.34.37c-.09.08-1.14,1-3,2.71A18.38,18.38,0,0,1,302.2,0H310l-.19.46a10.42,10.42,0,0,0-7.23.46c-3.93,1.55-9.74,6-15.13,18.16-5,11.25-21.6,23.34-39,33.71v25c31.18-19.09,54.33-46.54,61.1-56.7A85.75,85.75,0,0,0,320.09,0h.52l.49.14c0,.09-2.77,9.62-10.69,21.51-6.84,10.27-30.32,38.09-61.93,57.3v11c23.55-13.72,57.94-34.78,63.7-49.5,8-20.33,13.2-38.76,13.67-40.43h.52l.48.13c-.05.19-5.41,19.4-13.74,40.66-5.92,15.13-41,36.52-64.63,50.29v6.37c14.41-11.9,25-20.5,32.52-24.31,12.51-6.39,33.44-17.08,39.14-32.7C325.66,25.34,329.74,1.51,330,0h0V5.58c-1.57,8.26-4.85,24.08-8.92,35.2-5.84,16-27,26.8-39.63,33.25C274,77.85,263.16,86.62,248.48,98.74Zm0-47.11c17-10.21,33.21-22,38-32.95,2.89-6.53,6.13-11.47,9.68-14.77a557.4,557.4,0,0,1-47.72,37.6Zm-1.36-16.3H81.91v177.6H247.12V35.33ZM266,195.76c-18.43,14.52-22.81,53.33-22.85,53.72l1,.16c.11-.54,11.24-53.73,35.07-50.3,33.25,4.78,49.88,11.59,50.83,20.81v-3.4c-5.43-10.66-31.06-15.57-50.68-18.4-10.28-1.47-19.81,6.93-27.56,24.31a135.54,135.54,0,0,0-5.7,15.54c2.71-12.59,8.66-32.31,20.52-41.66a23.65,23.65,0,0,1,18.2-5.11c31.11,4,43.33,9.08,45.22,9.94v-1.1c-3-1.31-15.31-6-45.1-9.83A24.64,24.64,0,0,0,266,195.76ZM122,167.88h85.67v19H122Zm1.36,17.63h83V169.23h-83Zm4.76-69.87H102.3v9.5h25.84ZM102.3,133.28H227.4v17.64H102.3Zm1.36,16.28H226V134.64H103.66Zm196.55,71.21c-3.86-2.17-8.24-4.64-12.9-7.41-5.53-3.3-10.8-3.88-15.67-1.73-15,6.63-21.19,36.54-21.44,37.81l1,.19c.06-.3,6.33-30.67,20.86-37.09,4.56-2,9.53-1.45,14.76,1.67,4.66,2.79,9.05,5.25,12.92,7.43C317.9,231.87,327,237,322.8,249.38l.94.32C328.24,236.54,318.28,230.94,300.21,220.77ZM.37,42.05m0,.7,0-.7,0,0,0,.7" style="fill:#3f3d56"/></svg>